<svg xmlns="http://www.w3.org/2000/svg" width="256" height="256" viewBox="0 0 100 100"><rect width="100" height="100" rx="20" fill="#050505"></rect><path fill="#fff" d="M14.02 42.67L14.02 36.31Q14.33 36.27 15.00 36.27L15.00 36.27L16.01 36.27Q18.62 36.27 21.12 36.66L21.12 36.66Q22.41 36.86 23.11 37.05L23.11 37.05L23.11 42.63Q22.52 42.59 21.16 42.43L21.16 42.43Q19.33 42.24 17.96 42.24L17.96 42.24Q16.44 42.24 15.52 42.34Q14.61 42.43 14.02 42.67L14.02 42.67ZM16.01 63.73Q12.11 63.73 9.83 63.05Q7.55 62.36 6.38 60.76L6.38 60.76Q5.25 59.24 4.84 56.73Q4.43 54.21 4.43 50L4.43 50Q4.43 46.30 4.72 43.99Q5.01 41.69 5.79 40.13L5.79 40.13Q6.61 38.53 8.19 37.66Q9.77 36.78 12.38 36.47L12.38 36.47L12.38 50Q12.38 52.18 12.46 54.21L12.46 54.21Q12.54 55.77 13.07 56.55Q13.59 57.33 14.72 57.53L14.72 57.53Q15.82 57.76 17.96 57.76L17.96 57.76Q20.18 57.76 21.74 57.57L21.74 57.57Q22.37 57.53 23.27 57.37L23.27 57.37L23.27 63.03Q21.35 63.46 18.94 63.61L18.94 63.61Q17.61 63.73 16.01 63.73L16.01 63.73ZM31.49 63.42L31.22 62.29Q30.95 61.19 30.52 59.24L30.52 59.24L29.47 54.95L28.30 50.04L25.14 36.58L32.90 36.58L38.44 63.42L31.49 63.42ZM40.07 63.42L37.34 50L40.27 36.58L48.26 36.58L54.66 63.42L47.99 63.42L47.68 62.13L46.86 58.74L45.69 53.78Q44.95 50.78 44.29 47.89L44.29 47.89L44.05 47.89L42.73 53.78L42.30 55.77Q42.10 56.59 41.93 57.33Q41.75 58.07 41.60 58.74L41.60 58.74L40.82 62.13L40.50 63.42L40.07 63.42ZM56.34 63.42L53.10 49.77L55.44 36.58L63.20 36.58L60.00 50.04L58.83 54.95Q58.09 57.96 57.82 59.24L57.82 59.24L57.08 62.29L56.81 63.42L56.34 63.42ZM78.18 63.42L66.13 37.75L66.13 36.58L73.30 36.58L84.53 60.45L83.25 63.42L78.18 63.42ZM88.16 63.42L88.16 52.15L88.01 52.15L85.39 58.46L82.04 51.29L88.16 36.58L95.57 36.58L95.57 63.42L88.16 63.42ZM66.13 63.42L66.13 41.62L73.30 56.90L73.30 63.42L66.13 63.42Z"></path></svg>